HIERARCHY
ROOT Hips
{
	OFFSET 0.000000 0.000000 0.000000
	CHANNELS 6 Xposition Yposition Zposition Yrotation Xrotation Zrotation
	JOINT Chest
	{
		OFFSET 0.000000 1.127713 10.149404
		CHANNELS 6 Xposition Yposition Zposition Yrotation Xrotation Zrotation
		JOINT Chest2
		{
			OFFSET 0.000000 0.000001 11.268527
			CHANNELS 6 Xposition Yposition Zposition Yrotation Xrotation Zrotation
			JOINT Chest3
			{
				OFFSET 0.000000 0.001080 10.288218
				CHANNELS 6 Xposition Yposition Zposition Yrotation Xrotation Zrotation
				JOINT Chest4
				{
					OFFSET 0.000000 0.001081 10.276731
					CHANNELS 6 Xposition Yposition Zposition Yrotation Xrotation Zrotation
					JOINT Neck
					{
						OFFSET 0.000000 0.000001 14.388412
						CHANNELS 6 Xposition Yposition Zposition Yrotation Xrotation Zrotation
						JOINT Head
						{
							OFFSET 0.000000 -0.002320 9.567978
							CHANNELS 6 Xposition Yposition Zposition Yrotation Xrotation Zrotation
							End Site
							{
								OFFSET 0.000000 -0.000311 17.765411
							}
						}
					}
					JOINT RightCollar
					{
						OFFSET -3.132497 0.000001 8.066086
						CHANNELS 6 Xposition Yposition Zposition Yrotation Xrotation Zrotation
						JOINT RightShoulder
						{
							OFFSET -14.645328 0.000000 0.000000
							CHANNELS 6 Xposition Yposition Zposition Yrotation Xrotation Zrotation
							JOINT RightElbow
							{
								OFFSET 0.000000 -0.000002 -31.323030
								CHANNELS 6 Xposition Yposition Zposition Yrotation Xrotation Zrotation
								JOINT RightWrist
								{
									OFFSET 0.000000 -0.000002 -25.610935
									CHANNELS 6 Xposition Yposition Zposition Yrotation Xrotation Zrotation
									End Site
									{
										OFFSET 0.000000 -0.000001 -19.138220
									}
								}
							}
						}
					}
					JOINT LeftCollar
					{
						OFFSET 3.132497 0.000001 8.066086
						CHANNELS 6 Xposition Yposition Zposition Yrotation Xrotation Zrotation
						JOINT LeftShoulder
						{
							OFFSET 14.645328 0.000000 0.000000
							CHANNELS 6 Xposition Yposition Zposition Yrotation Xrotation Zrotation
							JOINT LeftElbow
							{
								OFFSET 0.000000 -0.000002 -31.323030
								CHANNELS 6 Xposition Yposition Zposition Yrotation Xrotation Zrotation
								JOINT LeftWrist
								{
									OFFSET 0.000000 -0.000002 -25.610935
									CHANNELS 6 Xposition Yposition Zposition Yrotation Xrotation Zrotation
									End Site
									{
										OFFSET 0.000000 -0.000001 -19.138220
									}
								}
							}
						}
					}
				}
			}
		}
	}
	JOINT RightHip
	{
		OFFSET -8.349073 0.000420 0.003782
		CHANNELS 6 Xposition Yposition Zposition Yrotation Xrotation Zrotation
		JOINT RightKnee
		{
			OFFSET 0.000000 0.000252 -43.250797
			CHANNELS 6 Xposition Yposition Zposition Yrotation Xrotation Zrotation
			JOINT RightAnkle
			{
				OFFSET 0.000000 0.000426 -42.243721
				CHANNELS 6 Xposition Yposition Zposition Yrotation Xrotation Zrotation
				JOINT RightToe
				{
					OFFSET 0.000000 -17.111912 -7.531273
					CHANNELS 6 Xposition Yposition Zposition Yrotation Xrotation Zrotation
					End Site
					{
						OFFSET 0.000000 -7.141665 -1.639313
					}
				}
			}
		}
	}
	JOINT LeftHip
	{
		OFFSET 8.349073 0.000167 0.001501
		CHANNELS 6 Xposition Yposition Zposition Yrotation Xrotation Zrotation
		JOINT LeftKnee
		{
			OFFSET 0.000000 0.000252 -43.250797
			CHANNELS 6 Xposition Yposition Zposition Yrotation Xrotation Zrotation
			JOINT LeftAnkle
			{
				OFFSET 0.000000 0.000426 -42.243713
				CHANNELS 6 Xposition Yposition Zposition Yrotation Xrotation Zrotation
				JOINT LeftToe
				{
					OFFSET 0.000000 -17.111914 -7.531273
					CHANNELS 6 Xposition Yposition Zposition Yrotation Xrotation Zrotation
					End Site
					{
						OFFSET 0.000000 -7.141665 -1.639313
					}
				}
			}
		}
	}
}
MOTION
Frames: 4
Frame Time: 0.041667
136.626480 2272.897217 3260.824951 2.799656 78.391556 -176.380852 -0.000031 1.127561 10.149885 0.017078 -4.837461 0.153246 0.000010 0.000069 11.268354 0.030543 -4.837253 0.150035 -0.000038 0.001064 10.288289 0.049417 1.041688 -0.054109 -0.000021 0.001084 10.276705 0.049417 1.041589 -0.054109 -0.000021 0.000677 14.388799 -3.007646 -12.607046 0.861469 -0.000153 -0.002340 9.568288 -6.279152 -2.072979 -5.160669 -3.132587 -0.000356 8.065475 -4.678679 0.000062 -14.180818 -14.645335 -0.000014 0.000316 -6.102526 -7.604243 6.666596 0.000114 -0.000348 -31.322815 -9.005805 10.719702 0.000002 0.000054 -0.000590 -25.611361 8.564164 0.000050 6.446233 3.132498 -0.000025 8.066098 -0.744738 0.000045 13.872679 14.645312 -0.000119 -0.000069 6.645242 -17.461966 -7.938015 0.000001 0.000615 -31.323339 2.052097 21.563298 0.000001 0.000022 -0.000394 -25.610987 -7.565985 -0.000044 -16.281873 -8.349099 0.001748 0.004096 2.961288 -16.447613 -5.001423 -0.000055 0.000775 -43.250114 0.000005 -1.354238 0.000000 -0.000056 0.001407 -42.243275 6.912845 6.381361 6.411384 -0.000033 -17.112368 -7.531973 0.000004 -2.152136 0.000002 8.349115 0.000741 0.001260 -5.273672 -14.555519 4.487230 -0.000097 0.000198 -43.250999 0.000005 -4.943837 -0.000001 -0.000000 0.000600 -42.243797 -9.503980 2.321803 -3.991688 0.000299 -17.111889 -7.531116 0.000007 7.081078 0.000003 
136.729553 2272.812744 3260.814941 2.778151 78.399473 -176.404826 -0.000027 1.127285 10.150167 0.015584 -4.835960 0.159068 -0.000002 -0.000126 11.268304 0.029565 -4.835748 0.155855 -0.000061 0.000937 10.288573 0.049214 1.047889 -0.059210 -0.000067 0.001367 10.276274 0.049217 1.047788 -0.059210 -0.000000 0.000642 14.388882 -3.001381 -12.611207 0.871423 -0.000152 -0.002303 9.567954 -6.267176 -2.078665 -5.183810 -3.132566 -0.000805 8.065573 -4.683353 0.000061 -14.177237 -14.645258 0.000710 0.000380 -6.117587 -7.611076 6.667912 0.000175 -0.000507 -31.322483 -9.005000 10.744304 0.000003 -0.000038 -0.000914 -25.611467 8.571661 0.000050 6.443042 3.132511 -0.000366 8.066186 -0.747033 0.000045 13.882067 14.645457 -0.000160 -0.000219 6.655416 -17.441043 -7.942448 0.000031 0.000783 -31.323057 2.054902 21.536802 0.000003 -0.000046 -0.000780 -25.611059 -7.565010 -0.000045 -16.275545 -8.349081 0.001515 0.004079 2.945622 -16.442943 -4.996610 -0.000070 -0.000338 -43.250320 0.000005 -1.351938 -0.000000 -0.000070 0.001183 -42.243404 6.927401 6.378952 6.412557 -0.000026 -17.112843 -7.531819 0.000004 -2.168732 0.000001 8.349123 0.000491 0.001269 -5.281031 -14.549911 4.488356 0.000025 0.000106 -43.250839 0.000005 -4.942938 0.000000 0.000047 0.000097 -42.243961 -9.501110 2.322965 -4.002899 0.000161 -17.112022 -7.531179 0.000009 7.082172 0.000002 
136.823227 2272.728760 3260.814941 2.781989 78.407245 -176.401930 -0.000040 1.127259 10.150208 0.013695 -4.831258 0.159269 -0.000006 0.000029 11.268225 0.027667 -4.831051 0.156054 -0.000061 0.001156 10.288347 0.047248 1.048489 -0.057309 -0.000050 0.001406 10.276873 0.047248 1.048388 -0.057310 -0.000015 0.000214 14.388967 -3.001978 -12.606955 0.856140 -0.000130 -0.002083 9.568044 -6.267309 -2.105136 -5.160602 -3.132586 -0.000915 8.065524 -4.694407 0.000061 -14.187892 -14.645380 -0.000247 0.000154 -6.107575 -7.579458 6.682555 0.000168 -0.000369 -31.322214 -9.004997 10.770995 0.000002 -0.000022 -0.000367 -25.611422 8.572689 0.000050 6.444506 3.132492 -0.000494 8.066253 -0.732480 0.000046 13.873812 14.645350 -0.000335 -0.000151 6.647363 -17.439647 -7.925179 -0.000007 0.000720 -31.323008 2.074800 21.503005 0.000002 -0.000023 -0.000846 -25.610865 -7.567372 -0.000044 -16.245292 -8.349117 0.001261 0.004299 2.924945 -16.446281 -4.990438 -0.000055 0.000040 -43.250145 0.000005 -1.335235 0.000001 -0.000077 0.001364 -42.243469 6.952216 6.368110 6.405678 0.000013 -17.112597 -7.531713 0.000006 -2.165334 0.000002 8.349098 0.000511 0.001189 -5.276265 -14.545591 4.484651 -0.000059 -0.000021 -43.250927 0.000005 -4.938636 -0.000000 0.000054 0.000247 -42.243870 -9.511383 2.319296 -3.996083 0.000230 -17.111710 -7.530813 0.000008 7.089271 0.000003 
137.010605 2272.606689 3260.834229 2.776151 78.403448 -176.402613 -0.000021 1.126825 10.150272 0.014152 -4.832860 0.159470 0.000013 -0.000020 11.268409 0.028116 -4.832651 0.156457 -0.000061 0.000917 10.287942 0.047810 1.043889 -0.060511 -0.000036 0.000870 10.276698 0.047794 1.043787 -0.060510 -0.000000 0.000309 14.389174 -3.005858 -12.594947 0.860506 -0.000122 -0.001958 9.567592 -6.274335 -2.122360 -5.167395 -3.132570 -0.000901 8.065521 -4.707846 0.000059 -14.194309 -14.645395 -0.000037 0.000225 -6.103077 -7.582749 6.694612 0.000205 -0.000768 -31.322681 -8.997999 10.783600 0.000002 -0.000037 -0.000520 -25.611742 8.538395 0.000050 6.416494 3.132513 -0.000447 8.066242 -0.737454 0.000046 13.882792 14.645389 -0.000451 0.000086 6.659521 -17.418705 -7.925632 0.000038 0.000210 -31.322819 2.070500 21.475001 0.000001 -0.000009 -0.000824 -25.610983 -7.581235 -0.000045 -16.274375 -8.349085 0.000853 0.004465 2.909409 -16.458133 -4.994914 -0.000078 0.000451 -43.250122 0.000005 -1.325738 0.000000 -0.000108 0.001299 -42.243187 6.967836 6.364512 6.414694 0.000013 -17.112940 -7.531597 0.000006 -2.172829 0.000002 8.349109 0.000124 0.001278 -5.270398 -14.555551 4.475038 -0.000006 0.000145 -43.251278 0.000005 -4.933438 -0.000001 0.000046 0.000524 -42.243675 -9.519631 2.316117 -3.990472 0.000184 -17.111784 -7.531134 0.000010 7.065977 0.000002 
